<svg xmlns="http://www.w3.org/2000/svg" width="22.43" height="22.014" viewBox="0 0 22.43 22.014">
  <path id="Icon_bathroom" data-name="Icon bathroom" d="M812.635,2265.959l-.648-.849a6.2,6.2,0,0,0,2.677-1.39l.354.841a1.407,1.407,0,0,1-.122,1.319,1.383,1.383,0,0,1-2.261.079Zm-17.531-.079a1.407,1.407,0,0,1-.122-1.319l.26-.619h-.714v-5.788h18.062a2.894,2.894,0,0,1,0,5.788H795.6a6.2,6.2,0,0,0,2.412,1.169l-.648.849a1.383,1.383,0,0,1-2.261-.079Zm-.372-9.058a.955.955,0,0,1,0-1.91h20.534a.955.955,0,0,1,0,1.91Zm1-3.872v-5.724a2.726,2.726,0,0,1,2.713-2.733h.606a2.725,2.725,0,0,1,2.688,2.37h.072a1.909,1.909,0,0,1,1.9,1.914v1.119a.661.661,0,0,1-.659.664h-4l-.034,0a.662.662,0,0,1-.625-.662v-1.119a1.91,1.91,0,0,1,1.9-1.914h.106a1.4,1.4,0,0,0-1.347-1.042h-.606a1.4,1.4,0,0,0-1.4,1.406v5.724Z" transform="translate(-793.785 -2244.493)" fill="#fff"/>
</svg>
