<svg xmlns="http://www.w3.org/2000/svg" width="19" height="14" viewBox="0 0 19 14">
  <path id="icon_bedroom" data-name="icon bedroom" d="M17.51,13.675l-.471-1.541H1.962l-.47,1.541a.429.429,0,0,1-.4.325.368.368,0,0,1-.139-.028A.513.513,0,0,1,.7,13.35l.372-1.216H.756A.825.825,0,0,1,0,11.257V6.171a.824.824,0,0,1,.756-.877H18.244A.824.824,0,0,1,19,6.171v5.085a.825.825,0,0,1-.756.877H17.93L18.3,13.35a.513.513,0,0,1-.255.623.374.374,0,0,1-.14.028A.428.428,0,0,1,17.51,13.675Zm-.673-9.354v-.1a1.959,1.959,0,0,0-1.8-2.084H11a1.75,1.75,0,0,0-1.5.939A1.748,1.748,0,0,0,8,2.141H3.962a1.96,1.96,0,0,0-1.8,2.084v.1h-.45V2.288A2.151,2.151,0,0,1,3.687,0H15.314a2.151,2.151,0,0,1,1.974,2.288V4.321Zm-6.794,0v-.1A1.045,1.045,0,0,1,11,3.113h4.038A1.045,1.045,0,0,1,16,4.225v.1ZM3,4.321v-.1a1.045,1.045,0,0,1,.959-1.112H8a1.045,1.045,0,0,1,.959,1.112v.1Z" fill="#fff"/>
</svg>
