<svg xmlns="http://www.w3.org/2000/svg" xmlns:xlink="http://www.w3.org/1999/xlink" width="117.555" height="115" viewBox="0 0 117.555 115">
  <defs>
    <filter id="Rectangle_92" x="0" y="0" width="117.555" height="115" filterUnits="userSpaceOnUse">
      <feOffset dy="3" input="SourceAlpha"/>
      <feGaussianBlur stdDeviation="3" result="blur"/>
      <feFlood flood-color="#f0f4fc"/>
      <feComposite operator="in" in2="blur"/>
      <feComposite in="SourceGraphic"/>
    </filter>
  </defs>
  <g id="Group_120" data-name="Group 120" transform="translate(9 6)">
    <g transform="matrix(1, 0, 0, 1, -9, -6)" filter="url(#Rectangle_92)">
      <rect id="Rectangle_92-2" data-name="Rectangle 92" width="99.555" height="97" rx="12" transform="translate(9 6)" fill="rgba(71,157,131,0.1)" opacity="0.75"/>
    </g>
    <g id="Covid_Safe" data-name="Covid Safe" transform="translate(14.59 12.498)">
      <path id="Path_77993" data-name="Path 77993" d="M63.472,44a5.669,5.669,0,0,0,6.392,1.605,6.076,6.076,0,0,0,0-11.21A5.669,5.669,0,0,0,63.472,36H58.707a21.29,21.29,0,0,0-3.1-7.73l3.373-3.49a5.782,5.782,0,0,0,5.614-3.543A6.154,6.154,0,0,0,63.4,14.546a5.657,5.657,0,0,0-6.467-1.235,6.025,6.025,0,0,0-3.424,5.809l-3.364,3.49a20.009,20.009,0,0,0-7.481-3.21V14.47a6.141,6.141,0,0,0,1.551-6.613,5.732,5.732,0,0,0-10.835,0A6.141,6.141,0,0,0,34.93,14.47V19.4a19.934,19.934,0,0,0-7.471,3.21l-3.373-3.49a6.025,6.025,0,0,0-3.424-5.809,5.657,5.657,0,0,0-6.467,1.235A6.154,6.154,0,0,0,13,21.237a5.782,5.782,0,0,0,5.614,3.543l3.373,3.48a21.484,21.484,0,0,0-3.1,7.74H14.12a5.669,5.669,0,0,0-6.392-1.605,6.076,6.076,0,0,0,0,11.21A5.669,5.669,0,0,0,14.12,44h4.765a21.29,21.29,0,0,0,3.1,7.73l-3.373,3.49A5.782,5.782,0,0,0,13,58.763a6.154,6.154,0,0,0,1.194,6.691,5.657,5.657,0,0,0,6.467,1.235,6.025,6.025,0,0,0,3.424-5.809l3.373-3.49A19.83,19.83,0,0,0,34.93,60.6v4.93a6.141,6.141,0,0,0-1.551,6.613,5.732,5.732,0,0,0,10.835,0,6.141,6.141,0,0,0-1.551-6.613V60.6a19.716,19.716,0,0,0,3.1-.9,13.922,13.922,0,0,0-.2,2.3A13.54,13.54,0,1,0,59.094,48a11.984,11.984,0,0,0-1.595.11A21.307,21.307,0,0,0,58.707,44Zm-4.378,7A11.006,11.006,0,1,1,48.461,62,10.821,10.821,0,0,1,59.094,51Zm-2.9-10-.164,1.31a18.149,18.149,0,0,1-2.3,6.84l-.416.21L51.1,47.07l-2.049,2.12L50.771,51a14.128,14.128,0,0,0-1.43,1.34l-1.662-1.71-2.049,2.12,1.933,2c-.213.37-.416.75-.6,1.14a16.646,16.646,0,0,1-5.925,2L39.762,58v9.06l.648.45a3.054,3.054,0,0,1,1.16,3.365,2.873,2.873,0,0,1-5.549,0,3.054,3.054,0,0,1,1.16-3.365l.648-.45V58l-1.266-.17a16.917,16.917,0,0,1-7.008-2.61l2.407-2.49-2.049-2.12-8.931,9.23.155.79a3.035,3.035,0,0,1-1.479,3.229,2.828,2.828,0,0,1-3.416-.525,3.078,3.078,0,0,1-.507-3.534,2.869,2.869,0,0,1,3.121-1.53l.764.16,8.921-9.24-2.049-2.12-2.407,2.49a18.279,18.279,0,0,1-2.523-7.25L21.4,41H12.641l-.435.67a2.851,2.851,0,0,1-3.252,1.2,3.031,3.031,0,0,1,0-5.74,2.851,2.851,0,0,1,3.252,1.2l.435.67H21.4l.164-1.31a18.279,18.279,0,0,1,2.523-7.25l2.407,2.49,2.049-2.12-8.921-9.24-.764.16a2.869,2.869,0,0,1-3.121-1.53,3.078,3.078,0,0,1,.507-3.534,2.828,2.828,0,0,1,3.416-.525,3.035,3.035,0,0,1,1.479,3.229l-.155.79,8.931,9.23,2.049-2.12-2.407-2.49a16.917,16.917,0,0,1,7.008-2.61L37.829,22V12.94l-.648-.45a3.054,3.054,0,0,1-1.16-3.365,2.873,2.873,0,0,1,5.549,0,3.054,3.054,0,0,1-1.16,3.365l-.648.45V22l1.266.17a16.917,16.917,0,0,1,7.008,2.61l-2.407,2.49,2.049,2.12,8.931-9.23-.155-.79a3.035,3.035,0,0,1,1.479-3.229,2.828,2.828,0,0,1,3.416.525,3.078,3.078,0,0,1,.507,3.534,2.869,2.869,0,0,1-3.121,1.53l-.764-.16-8.921,9.24L51.1,32.93l2.407-2.49a18.227,18.227,0,0,1,2.523,7.25L56.194,39h8.757l.435-.67a2.851,2.851,0,0,1,3.252-1.2,3.031,3.031,0,0,1,0,5.74,2.851,2.851,0,0,1-3.252-1.2L64.951,41Z" transform="translate(-3.998 -3.998)" fill="#479d83"/>
      <path id="Path_77994" data-name="Path 77994" d="M39.8,34a6,6,0,1,0,5.8,6A5.9,5.9,0,0,0,39.8,34Zm0,9a3,3,0,1,1,2.9-3A2.951,2.951,0,0,1,39.8,43Z" transform="translate(-5.001 -3.998)" fill="#479d83"/>
      <path id="Path_77995" data-name="Path 77995" d="M58.536,69.2l2.233.87L63,69.2a7.1,7.1,0,0,0,4.456-6.66V56l-1.121.2a5.12,5.12,0,0,1-4.523-1.5l-1.044-1.11L59.7,54.69a5.69,5.69,0,0,1-4.572,1.74l-1.044-.09v6.2a7.1,7.1,0,0,0,4.456,6.66ZM56.013,58.44a7.6,7.6,0,0,0,4.755-2,7.09,7.09,0,0,0,4.755,1.84v4.3a5.1,5.1,0,0,1-3.209,4.79l-1.546.6-1.546-.6a5.1,5.1,0,0,1-3.209-4.79Z" transform="translate(-5.673 -3.998)" fill="#479d83"/>
      <path id="Path_77996" data-name="Path 77996" d="M64.137,60.7,62.59,59.51l-2.175,3L59.372,61.4,57.98,62.79l2.629,2.8Z" transform="translate(-5.803 -3.998)" fill="#479d83"/>
    </g>
  </g>
</svg>
