<svg xmlns="http://www.w3.org/2000/svg" xmlns:xlink="http://www.w3.org/1999/xlink" width="117.555" height="115" viewBox="0 0 117.555 115">
  <defs>
    <filter id="Rectangle_92" x="0" y="0" width="117.555" height="115" filterUnits="userSpaceOnUse">
      <feOffset dy="3" input="SourceAlpha"/>
      <feGaussianBlur stdDeviation="3" result="blur"/>
      <feFlood flood-color="#f0f4fc"/>
      <feComposite operator="in" in2="blur"/>
      <feComposite in="SourceGraphic"/>
    </filter>
  </defs>
  <g id="Group_119" data-name="Group 119" transform="translate(-6.722 16)">
    <g transform="matrix(1, 0, 0, 1, 6.72, -16)" filter="url(#Rectangle_92)">
      <rect id="Rectangle_92-2" data-name="Rectangle 92" width="99.555" height="97" rx="12" transform="translate(9 6)" fill="rgba(71,157,131,0.1)" opacity="0.75"/>
    </g>
    <g id="Get_Best_Prices_" data-name="Get Best Prices " transform="translate(39.108 4.036)">
      <path id="Path_77989" data-name="Path 77989" d="M47.361,56.683c.474,0,1.025.031,1.619.062a12.186,12.186,0,0,0,1.812-.008l5.77,13.8H44.12L41.34,65.218a1.56,1.56,0,0,0-2.784,0l-2.784,5.316H23.33l5.775-13.8a12.071,12.071,0,0,0,1.855.008,10.781,10.781,0,0,1,2.784.045,11.3,11.3,0,0,1,2.436,1.4,6.706,6.706,0,0,0,3.789,1.468,6.715,6.715,0,0,0,3.792-1.468,11.314,11.314,0,0,1,2.432-1.4v-.008A4.633,4.633,0,0,1,47.361,56.683ZM42.044,10.061a11.255,11.255,0,0,0,3.335,1.822,11.074,11.074,0,0,0,3.763.149,4.475,4.475,0,0,1,2.248.256,4.79,4.79,0,0,1,1.344,1.883,11.844,11.844,0,0,0,2,3.305,11.426,11.426,0,0,0,3.187,2.073,4.664,4.664,0,0,1,1.829,1.392A4.909,4.909,0,0,1,60,23.262a12.106,12.106,0,0,0,.144,3.9,11.876,11.876,0,0,0,1.763,3.447,4.892,4.892,0,0,1,.9,2.15,4.9,4.9,0,0,1-.9,2.146,11.8,11.8,0,0,0-1.763,3.441A12.231,12.231,0,0,0,60,42.24a4.928,4.928,0,0,1-.246,2.326,4.682,4.682,0,0,1-1.829,1.386,11.481,11.481,0,0,0-3.187,2.078,11.855,11.855,0,0,0-2,3.3,4.8,4.8,0,0,1-1.31,1.851l-.527.2a6.75,6.75,0,0,1-1.755.09,10.914,10.914,0,0,0-3.763.145,11.3,11.3,0,0,0-3.335,1.82,4.557,4.557,0,0,1-2.074.94,4.59,4.59,0,0,1-2.074-.94,11.2,11.2,0,0,0-3.33-1.82,10.939,10.939,0,0,0-3.763-.145,6.3,6.3,0,0,1-1.846-.108l-.419-.162a4.84,4.84,0,0,1-1.331-1.874,11.842,11.842,0,0,0-2-3.3,11.338,11.338,0,0,0-3.187-2.078,4.652,4.652,0,0,1-1.825-1.386,4.984,4.984,0,0,1-.249-2.326,12.124,12.124,0,0,0-.139-3.9A11.881,11.881,0,0,0,18.038,34.9a4.837,4.837,0,0,1-.9-2.146,4.83,4.83,0,0,1,.9-2.15A12.044,12.044,0,0,0,19.8,27.16a12.084,12.084,0,0,0,.139-3.892,4.961,4.961,0,0,1,.249-2.325,4.605,4.605,0,0,1,1.825-1.392A11.3,11.3,0,0,0,25.2,17.478a11.844,11.844,0,0,0,2-3.305,4.81,4.81,0,0,1,1.344-1.883,4.476,4.476,0,0,1,2.253-.256,11.078,11.078,0,0,0,3.763-.149,11.171,11.171,0,0,0,3.33-1.822,4.592,4.592,0,0,1,2.074-.939A4.546,4.546,0,0,1,42.044,10.061ZM39.969,5.843A6.7,6.7,0,0,0,36.18,7.311a11.081,11.081,0,0,1-2.436,1.408,11.02,11.02,0,0,1-2.784.037,6.681,6.681,0,0,0-3.994.691,7.062,7.062,0,0,0-2.571,3.233,12.016,12.016,0,0,1-1.431,2.48,11.451,11.451,0,0,1-2.393,1.471,6.9,6.9,0,0,0-3.12,2.67,7.294,7.294,0,0,0-.673,4.127,12.137,12.137,0,0,1-.039,2.881,11.944,11.944,0,0,1-1.362,2.515,7.279,7.279,0,0,0-1.41,3.928,7.249,7.249,0,0,0,1.41,3.92A11.771,11.771,0,0,1,16.739,39.2a12.113,12.113,0,0,1,.039,2.881,7.285,7.285,0,0,0,.673,4.122,6.873,6.873,0,0,0,3.12,2.67,11.167,11.167,0,0,1,2.393,1.477,11.745,11.745,0,0,1,1.431,2.475,8.449,8.449,0,0,0,1.791,2.642L19.468,71.517a1.637,1.637,0,0,0,1.449,2.294H36.71a1.572,1.572,0,0,0,1.393-.858l1.841-3.518,1.846,3.518a1.577,1.577,0,0,0,1.393.858H58.976a1.635,1.635,0,0,0,1.453-2.294l-6.71-16.024a8.384,8.384,0,0,0,1.829-2.673,11.838,11.838,0,0,1,1.427-2.475,11.261,11.261,0,0,1,2.4-1.477,6.862,6.862,0,0,0,3.117-2.67,7.292,7.292,0,0,0,.678-4.122A11.947,11.947,0,0,1,63.2,39.2a12.005,12.005,0,0,1,1.362-2.521,7.216,7.216,0,0,0,1.41-3.92,7.236,7.236,0,0,0-1.41-3.928A12.1,12.1,0,0,1,63.2,26.311a11.918,11.918,0,0,1-.034-2.881,7.294,7.294,0,0,0-.678-4.127,6.879,6.879,0,0,0-3.117-2.67,11.531,11.531,0,0,1-2.4-1.471,12.1,12.1,0,0,1-1.427-2.48,7.038,7.038,0,0,0-2.575-3.233,6.675,6.675,0,0,0-3.994-.69,11.02,11.02,0,0,1-2.784-.037,11.113,11.113,0,0,1-2.432-1.408A6.712,6.712,0,0,0,39.969,5.843Z" transform="translate(-13.967 -5.843)" fill="#479d83"/>
      <path id="Path_77990" data-name="Path 77990" d="M51.223,25.239a1.53,1.53,0,0,0-1.087.493L33.782,42.553a1.678,1.678,0,0,0-.029,2.34,1.546,1.546,0,0,0,2.26-.018L52.365,28.053A1.643,1.643,0,0,0,51.223,25.239Z" transform="translate(-17.096 -8.42)" fill="#479d83"/>
      <path id="Path_77991" data-name="Path 77991" d="M38.08,26.855a2.424,2.424,0,0,1,.013,3.4,2.262,2.262,0,0,1-3.308-.008,2.433,2.433,0,0,1-.01-3.4A2.268,2.268,0,0,1,38.08,26.855Zm2.244-2.313a5.423,5.423,0,0,0-7.792-.014,5.812,5.812,0,0,0,.008,8.026,5.427,5.427,0,0,0,7.8.008,5.813,5.813,0,0,0-.013-8.021h0Z" transform="translate(-16.713 -8.108)" fill="#479d83"/>
      <path id="Path_77992" data-name="Path 77992" d="M53.016,41.708a2.437,2.437,0,0,1,.008,3.406,2.265,2.265,0,0,1-3.3-.009,2.43,2.43,0,0,1-.013-3.4A2.27,2.27,0,0,1,53.016,41.708ZM55.264,39.4a5.427,5.427,0,0,0-7.8-.008,5.81,5.81,0,0,0,.008,8.021,5.434,5.434,0,0,0,7.8.014A5.823,5.823,0,0,0,55.264,39.4Z" transform="translate(-19.13 -10.082)" fill="#479d83"/>
    </g>
  </g>
</svg>
