<svg xmlns="http://www.w3.org/2000/svg" width="15" height="19" viewBox="0 0 15 19">
  <g id="Map" transform="translate(-23.866 -16.032)">
    <g id="Group_29" data-name="Group 29">
      <path id="Path_62" data-name="Path 62" d="M31.362,16.032A7.628,7.628,0,0,0,24,25.078c0,.028.02.112.051.255a7.58,7.58,0,0,0,.5,1.5,21.3,21.3,0,0,0,6.481,8.078.524.524,0,0,0,.667,0,21.342,21.342,0,0,0,6.481-8.078,7.487,7.487,0,0,0,.5-1.5c.031-.143.047-.227.051-.255a7.964,7.964,0,0,0,.133-1.43,7.578,7.578,0,0,0-7.5-7.616Zm6.32,8.859c0,.008,0,.016,0,.024s-.016.08-.035.171v.008a6.383,6.383,0,0,1-.435,1.3s0,.012-.008.016A19.885,19.885,0,0,1,31.362,33.8a19.881,19.881,0,0,1-5.838-7.393s0-.012-.008-.016a6.823,6.823,0,0,1-.435-1.3v-.008c-.024-.092-.031-.151-.035-.171s0-.016,0-.028a6.6,6.6,0,0,1-.118-1.243,6.438,6.438,0,1,1,12.875,0,6.583,6.583,0,0,1-.118,1.247Zm0,0"/>
      <path id="Path_63" data-name="Path 63" d="M31.362,18.9a4.836,4.836,0,1,0,4.76,4.836,4.805,4.805,0,0,0-4.76-4.836Zm0,8.6a3.761,3.761,0,1,1,3.7-3.76,3.735,3.735,0,0,1-3.7,3.76Zm0,0" fill="#479d83"/>
    </g>
  </g>
</svg>
