<svg xmlns="http://www.w3.org/2000/svg" width="19.5" height="17.427" viewBox="0 0 19.5 17.427">
  <path id="icon_crop" data-name="icon crop" d="M813.476,2292.636a.944.944,0,0,1-.991.889h-2.4v2.015a1,1,0,0,1-1.983,0v-2.015h-8.858v2.015a1,1,0,0,1-1.983,0v-2.015h-2.225a.894.894,0,1,1,0-1.778h2.225V2283.8h-2.292a.895.895,0,1,1,0-1.779h2.292v-2.134a1,1,0,0,1,1.983,0v2.074H808.1v-2.074a1,1,0,0,1,1.983,0v2.134h2.336a.895.895,0,1,1,0,1.779h-2.269v7.942h2.336A.944.944,0,0,1,813.476,2292.636Z" transform="translate(-793.976 -2279.003)" fill="#fff"/>
</svg>
