<svg xmlns="http://www.w3.org/2000/svg" width="14" height="24" viewBox="0 0 14 24">
  <g id="Door" transform="matrix(-1, 0, 0, -1, 45.988, 42.047)">
    <g id="Group_24" data-name="Group 24">
      <path id="Path_54" data-name="Path 54" d="M45.257,18.047H32.719a.717.717,0,0,0-.731.7V41.344a.718.718,0,0,0,.731.7H45.257a.718.718,0,0,0,.731-.7V18.75a.718.718,0,0,0-.731-.7Zm-.731,22.594H33.45V19.453H44.526Zm0,0"/>
      <path id="Path_55" data-name="Path 55" d="M38.724,28.6a2.229,2.229,0,0,0-1.762-.207,2.486,2.486,0,0,1-.714.1h-.361v-.473a.732.732,0,0,0-1.462,0v2.76a.732.732,0,0,0,1.463,0V29.9h.361a3.989,3.989,0,0,0,1.15-.169.717.717,0,0,1,.566.067.75.75,0,0,0,.379.1.738.738,0,0,0,.626-.338.688.688,0,0,0-.245-.966Zm0,0" fill="#479d83"/>
    </g>
    <g id="Group_25" data-name="Group 25">
      <path id="Path_56" data-name="Path 56" d="M45.257,18.047H32.719a.717.717,0,0,0-.731.7V41.344a.718.718,0,0,0,.731.7H45.257a.718.718,0,0,0,.731-.7V18.75a.718.718,0,0,0-.731-.7Zm-.731,22.594H33.45V19.453H44.526Zm0,0"/>
      <path id="Path_57" data-name="Path 57" d="M38.724,28.6a2.229,2.229,0,0,0-1.762-.207,2.486,2.486,0,0,1-.714.1h-.361v-.473a.732.732,0,0,0-1.462,0v2.76a.732.732,0,0,0,1.463,0V29.9h.361a3.989,3.989,0,0,0,1.15-.169.717.717,0,0,1,.566.067.75.75,0,0,0,.379.1.738.738,0,0,0,.626-.338.688.688,0,0,0-.245-.966Zm0,0" fill="#479d83"/>
    </g>
    <g id="Group_26" data-name="Group 26">
      <path id="Path_58" data-name="Path 58" d="M45.257,18.047H32.719a.717.717,0,0,0-.731.7V41.344a.718.718,0,0,0,.731.7H45.257a.718.718,0,0,0,.731-.7V18.75a.718.718,0,0,0-.731-.7Zm-.731,22.594H33.45V19.453H44.526Zm0,0"/>
      <path id="Path_59" data-name="Path 59" d="M38.724,28.6a2.229,2.229,0,0,0-1.762-.207,2.486,2.486,0,0,1-.714.1h-.361v-.473a.732.732,0,0,0-1.462,0v2.76a.732.732,0,0,0,1.463,0V29.9h.361a3.989,3.989,0,0,0,1.15-.169.717.717,0,0,1,.566.067.75.75,0,0,0,.379.1.738.738,0,0,0,.626-.338.688.688,0,0,0-.245-.966Zm0,0" fill="#479d83"/>
    </g>
  </g>
</svg>
